<?xml version="1.0" encoding="utf-8"?>
<!-- Generator: Adobe Illustrator 13.0.0, SVG Export Plug-In . SVG Version: 6.00 Build 14948)  -->
<!DOCTYPE svg PUBLIC "-//W3C//DTD SVG 1.1//EN" "http://www.w3.org/Graphics/SVG/1.1/DTD/svg11.dtd" [
	<!ENTITY ns_flows "http://ns.adobe.com/Flows/1.0/">
	<!ENTITY ns_extend "http://ns.adobe.com/Extensibility/1.0/">
	<!ENTITY ns_ai "http://ns.adobe.com/AdobeIllustrator/10.0/">
	<!ENTITY ns_graphs "http://ns.adobe.com/Graphs/1.0/">
	<!ENTITY ns_vars "http://ns.adobe.com/Variables/1.0/">
	<!ENTITY ns_imrep "http://ns.adobe.com/ImageReplacement/1.0/">
	<!ENTITY ns_sfw "http://ns.adobe.com/SaveForWeb/1.0/">
	<!ENTITY ns_custom "http://ns.adobe.com/GenericCustomNamespace/1.0/">
	<!ENTITY ns_adobe_xpath "http://ns.adobe.com/XPath/1.0/">
]>
<svg version="1.1"
	 xmlns:x="&ns_extend;" xmlns:i="&ns_ai;" xmlns:graph="&ns_graphs;" i:viewOrigin="156.5 545.5" i:rulerOrigin="0 0" i:pageBounds="0 792 612 0"
	 xmlns="http://www.w3.org/2000/svg" xmlns:xlink="http://www.w3.org/1999/xlink" xmlns:a="http://ns.adobe.com/AdobeSVGViewerExtensions/3.0/"
	 x="0px" y="0px" width="300px" height="300px" viewBox="0 0 300 300" enable-background="new 0 0 300 300" xml:space="preserve">
<metadata><?xpacket begin="﻿" id="W5M0MpCehiHzreSzNTczkc9d"?>
<x:xmpmeta xmlns:x="adobe:ns:meta/" x:xmptk="Adobe XMP Core 4.1-c036 46.277092, Fri Feb 23 2007 14:17:08        ">
   <rdf:RDF xmlns:rdf="http://www.w3.org/1999/02/22-rdf-syntax-ns#">
      <rdf:Description rdf:about=""
            xmlns:xap="http://ns.adobe.com/xap/1.0/"
            xmlns:xapGImg="http://ns.adobe.com/xap/1.0/g/img/">
         <xap:Thumbnails>
            <rdf:Alt>
               <rdf:li rdf:parseType="Resource">
                  <xapGImg:width>256</xapGImg:width>
                  <xapGImg:height>212</xapGImg:height>
                  <xapGImg:format>JPEG</xapGImg:format>
                  <xapGImg:image>/9j/4AAQSkZJRgABAgEASABIAAD/7QAsUGhvdG9zaG9wIDMuMAA4QklNA+0AAAAAABAASAAAAAEA&#xA;AQBIAAAAAQAB/+4ADkFkb2JlAGTAAAAAAf/bAIQABgQEBAUEBgUFBgkGBQYJCwgGBggLDAoKCwoK&#xA;DBAMDAwMDAwQDA4PEA8ODBMTFBQTExwbGxscHx8fHx8fHx8fHwEHBwcNDA0YEBAYGhURFRofHx8f&#xA;Hx8fHx8fHx8fHx8fHx8fHx8fHx8fHx8fHx8fHx8fHx8fHx8fHx8fHx8fHx8f/8AAEQgA1AEAAwER&#xA;AAIRAQMRAf/EAaIAAAAHAQEBAQEAAAAAAAAAAAQFAwIGAQAHCAkKCwEAAgIDAQEBAQEAAAAAAAAA&#xA;AQACAwQFBgcICQoLEAACAQMDAgQCBgcDBAIGAnMBAgMRBAAFIRIxQVEGE2EicYEUMpGhBxWxQiPB&#xA;UtHhMxZi8CRygvElQzRTkqKyY3PCNUQnk6OzNhdUZHTD0uIIJoMJChgZhJRFRqS0VtNVKBry4/PE&#xA;1OT0ZXWFlaW1xdXl9WZ2hpamtsbW5vY3R1dnd4eXp7fH1+f3OEhYaHiImKi4yNjo+Ck5SVlpeYmZ&#xA;qbnJ2en5KjpKWmp6ipqqusra6voRAAICAQIDBQUEBQYECAMDbQEAAhEDBCESMUEFURNhIgZxgZEy&#xA;obHwFMHR4SNCFVJicvEzJDRDghaSUyWiY7LCB3PSNeJEgxdUkwgJChgZJjZFGidkdFU38qOzwygp&#xA;0+PzhJSktMTU5PRldYWVpbXF1eX1RlZmdoaWprbG1ub2R1dnd4eXp7fH1+f3OEhYaHiImKi4yNjo&#xA;+DlJWWl5iZmpucnZ6fkqOkpaanqKmqq6ytrq+v/aAAwDAQACEQMRAD8A9U4q7FXYq7FXYq7FWMfm&#xA;T5NPnDyffaLDctY37gTaZfozI1vdxHnDIGT4h8Qo1N+JOKvGvyV/5yIvU1Z/IH5mP9T8xWUrWkGq&#xA;zlUWWSI8fRuDsBJUfDJ0fvvuyr6MxV2KuxV2KuxV2KuxV2KuxV2KuxV2KuxV2KuxV2KuxV2KuxV2&#xA;KuxV2KuxV2KuxV2KuxV2KuxV2KuxV8z/APOW35M/pGyb8wdCtyb+zQLr8MYqZLdAAtyFH7UQ2f8A&#xA;yN/2TiqRf848f85NvZG18oeebkvZkrDpeuStvCOiw3LHqnZZD9n9r4d1VfWiOkiK6MHRwGVlNQQd&#xA;wQRireKuxV2KuxV2KuxV2KuxV2KuxV2KuxV2KuxV2KuxV2KuxV2KuxV2KuxV2KuxV2KuxV2KuxV2&#xA;KrZYopYnilRZIpFKyRsAysrChBB2IIxV8D/85E/k5L+Xvmw3Gnxk+V9WZpdNfciF+slsx8U6p4r7&#xA;g4qyr/nHz/nJW48rNb+VvN8zz+Wto7K/ILyWVTsrU+J4PbqvbbbFX2bb3Fvc28VxbypNbzIskM0b&#xA;B0dHFVZWFQQQagjFV+KuxV2KuxV2KuxV2KuxV2KuxV2KuxV2KuxV2KuxV2KuxV2KuxV2KuxV2Kux&#xA;V2KuxV2KuxV2Ksc/MHyLo3njype+XdWX9xdLWGcAF4J1B9OZK/tIT9IqOhxV+dXnTyfrPk/zNfeX&#xA;tYi9O9sZChYV4SId0ljJ6o60Yf1xV6l+QP8AzkTqHkS4i0HXme88pTOKHdpbIt1eId467tH9K71B&#xA;Vfbml6pp2q6db6lptzHd2F2gltrmFg6OjdCpGKorFXYq7FXYq7FXYq7FXYq7FXYq7FXYq7FXYq7F&#xA;XYq7FXYq7FXYq7FXYq7FXYq7FXYq7FXYq7FXjn/OSH5Lp5/8tfpPSov+dq0eNmsqdbmGvJ7Zvfq0&#xA;f+Vt+0Tir4QkjeN2jkUpIhKujChBGxBBxV6z+Rf5+6z+XOoLYXvqX/lG4cm708UMkLN1mtuRFG/m&#xA;SvFvY7hV90+X/MGj+YdHtdZ0a6S8028QSW9xGagg9QR1DA7Mp3B2OKphirsVdirsVdirsVdirsVd&#xA;irsVdirsVdirsVdirsVdirsVdirsVdirsVdirsVdirsVdirsVdir5J/5yz/JP6lcS/mHoEH+i3L/&#xA;APOw2yDaOVyAt0KdpGNJP8rf9o0VfMOKvRvya/OvzD+Wusc7et5oF06nU9KY/Cw6epET9iUDv0PQ&#xA;+yr7z8m+cvL3nHy/ba9oF0LqwuBSvR45B9qKVOqOtdx9I2IOKp3irsVdirsVdirsVdirsVdirsVd&#xA;irsVdirsVdirsVdirsVdirsVdirsVdirsVdirsVdirsVUb6ytL+znsryFbi0uY2iuIJByR43HFlY&#xA;HsQcVfn7+fP5Q3f5c+bnghV5PLuolptHumqfgr8UDt/PFUD3FD3xV5nirNPyt/NbzN+XOvDUtHk9&#xA;S1m4rqOnSE+jcRqa0P8AK434uNx8qgqvvb8t/wAyvLP5geXo9Y0OepFFvbJyPXtpT+xKoPseLdGH&#xA;TFWVYq7FXYq7FXYq7FXYq7FXYq7FXYq7FXYq7FXYq7FXYq7FXYq7FXYq7FXYq7FWA/md+d3kT8u4&#xA;eGsXRuNVdeUGkWtJLlgRszgkLGh/mcj2rirFvI3/ADlf+V/mSSO11CaXy7fyEKEv+P1csWoAtyhK&#xA;Ae8gTFXssckcsayxMHjcBkdSCrKRUEEdQcVXYqxb8y/y90bz95Su/L2qDiJR6lndAAvb3Cg+nKvy&#xA;6MO6kjvir87fOHlPWfKXmO+8v6zCYb+xk4P/ACup3SRD3R1IZTiqTYqyX8vvzC8y+Q/MUOu6BP6c&#xA;6fBcW8lTDcRE1aKZARyU/eDuCDir76/Kn81vLv5jeXV1TS29G8h4pqWmuwMtvKR0PTkjU+B+/sQQ&#xA;FWa4q7FXYq7FXYq7FXYq7FXYq7FXYq7FXYq7FXYq7FXYq7FXYq7FXYq7FWNfmV5qk8p+Q9c8xRRi&#xA;WfTrV5beM/ZMp+CPl/k82FfbFX5uavq2paxqdzqmp3D3d/eSNLc3Ep5O7sakk4qg8Vem/lN+fvnT&#xA;8vLqKCGZtS8u8q3GjXDngFP2jA55GFvl8PiDir7h/L78xfK3n3QU1jy/c+rECEubZ6LPBIRX05Uq&#xA;aHwI2PY4qybFXj//ADkX+SkX5heXRqOmIF816TGTYt0+sQirNbMfcktGezezHFXwfPBPbzyW88bR&#xA;TwsY5YnBVldTRlYHcEHriqnirIPI/nrzJ5J1+HXPL90be8i+GRD8UUsZ+1FKnRkan8RQ74q+/wD8&#xA;p/zU0D8xvLKarprelewcY9U09j+8t5iOnujUJRu49wQFWa4qx/zr5+8peStKOp+ZNRjsbc1EKNVp&#xA;ZmUVKRRLV3O/Ybd6DFXz/wCY/wDnN7TY5ni8ueWpbmIGiXV/OsNQOv7mJZevb95iqloX/OcFs0qR&#xA;695WeKIt+8uLG5EjBSe0MqJUgf8AFm/tir3zyH+Zvkrz3YG78t6il00YBuLRqx3ENe0kTfEPDkKq&#xA;exxVlOKuxV2KuxV2KuxV2KuxV2KuxV2KuxV2KuxV2KuxVif5seW7nzN+W/mLRLSpu7yylFsoFS00&#xA;Y9SNO323QL9OKvzYZWVirAqymjKdiCMVaxV2Ksm/L38w/MnkLzHDrmhT8JU+G5tnqYbiEmrRSqOq&#xA;n7wdxvir9Avyy/Mry/8AmF5Yh1zSH4Psl9YuwMttPT4o3p27q1PiG/tirLMVfMv/ADlN+Qv6Rin8&#xA;++V7X/T4VL69YxD++jUVN0ij9tR/eAfaG/UGqr5FxV2Ks8/JLz5qfkv8xdJ1C0kYWt1PHZ6nAOkt&#xA;tNIquCPFftL7jFX335584aZ5O8p6l5k1Le106EyemDQySEhIolNDQySMqg++Kvzq8+efPMXnjzHc&#xA;a7rtwZbmY0hhFRFBED8MUS/sqv49TucVY7irsVTjyn5s17ynr1rruhXTWmoWjckdfsuv7Uci/tI3&#xA;RlOKv0P/ACs/MHT/AD95KsPMdovpSTAxX1t/vm6joJY/lX4lPdSMVZbirsVdirsVdirsVdirsVdi&#xA;rsVdirsVdirsVdirsVfFH/OVP5Ny+WPMb+b9Ht/+de1mUtdpGp42t427A+CTGrL71XbaqrwLFXYq&#xA;7FWa/lN+aWt/lz5qi1iwrNZScY9U04sVS4gruPAOtSUamx9qgqv0L8r+ZtG8z6BZa9o04udOv4xJ&#xA;BINiOzIw/ZdGBVh2IxVNMVfKv57f84qX1xf3Pmb8v4UkFwzTX3l9eMZVz8TPaVIUhv8AfW1P2a1C&#xA;hV8z6l5a8xaXdPaalpd3ZXSGjwTwSRuKf5LKDir13/nHf8jPM3mPzfp2v6tYS2PlrSZ47uSa6jaP&#xA;6zJC3KOGFWA5guvxnoBXvQYq9R/5zc1i8g8r+W9Jjcra315PPcKP2mtY1VAfb9+TTFXx/irsVdir&#xA;sVfU3/OEGvzi58z+X3q0DJBfw77K6loZNv8ALDJ/wOKvq7FXYq7FXYq7FXYq7FXYq7FXYq7FXYq7&#xA;FXYq7FXYqgdc0TStd0i70jVrZLvTr2Mw3NvIKqyt+og7gjcHcb4q+DPzw/IrW/y31ZriBZL3yrdP&#xA;Sw1KlTGWqRBcU2WQAbHow3HcBV5ZirsVdir2j/nGz865PInmIaLq85/wpq8qi45Gq2tw1FW5Hgp2&#xA;EntQ/s4q+7AQQCDUHcEdKYq7FXYq7FXzv/zmn5aur7yNpGuwKXTRrxkuQATxiu1C8z7CSNF/2WKv&#xA;jPFXYq7FXYq+sf8AnCPyvNHaeY/NEyMsc7RadZtsFb06yz+5+1H+P0KvqPFXYq7FXYq7FXYq7FXY&#xA;q7FXYq7FXYq7FXYq7FXYq7FUJq+kaXrGm3Gl6rax3un3aGO5tplDI6nsQffcHscVfHP5z/8AOKmu&#xA;+XZZ9a8lRy6toJLSSacoL3dqK1oo3aeMeI+IdwftYq+fWUqSrChGxB6g4q1irsVfcn/OJ35kS+af&#xA;ILaHfymTVfLRS25satJZyA/V2JJ3KcGj6dFXucVe4Yq7FXYql/mDQdL8waJe6LqsIn0/UImguYj3&#xA;Vh1B7MDuD2OKvz5/N78nvMf5b6+9peo1zo87E6Xq6qRFMnUK1KhJV/aQ/MVFDirAcVdirLvy1/LD&#xA;zR+YOvx6VotufRDA32oOD6FtGeryN40+yvU4q/QvyT5Q0jyf5X0/y5pKFbKwj4KzU5yOSWkken7T&#xA;uSxxVO8VdirsVdirsVdirsVdirsVdirsVdirsVdirsVdirsVdirsVeLfnt+RH5b+YtH1HzPdzxeW&#xA;dVtY2nuNaUUhkI3/ANKiH94WJpyX4yT+19nFXws6qrsqsHUEgOKgEeO9Diq3FX0J/wA4UTTD8y9Y&#xA;gBPovo0ruO3JLq3C/g7Yq+0MVdirsVdiqE1XSNL1ewm07VbSG+sLgcZrW4RZI3HurAjFXj+u/wDO&#xA;If5P6pdNcW8d/pAbcw2Fwvp19hcR3FPkDTFVLSP+cPPyhsLhZrk6lqiqa+hd3KKh9j9Wit2p9OKv&#xA;YdC8v6HoGmx6ZoljBp1hF9i3tkWNK0A5EKPiY03Y7nviqPxV2KuxV2KuxV2KuxV2KuxV2KuxV2Ku&#xA;xV2KuxV2KuxV2KuxVDanqVhpen3Oo6hOltY2kbTXNxIaKkaCrMfoxV8Ifn7+e2o/mLrBsdPeS28o&#xA;2L/6FaH4WncbfWJx/Mf2FP2R7k4q8jxV2KvuD/nFL8qLjyl5Tl8w6tF6WteYVR0hYfHBZrVolavR&#xA;pCebDw49wcVe6Yq7FXYq7FXYq7FXYq7FXYq7FXYq7FXYq7FXYq7FXYq7FXYq7FXYq7FXYq7FXYq7&#xA;FVsssUMTzTOscUal5JHIVVVRUsxOwAGKviD/AJyQ/PyTzvqL+XPL8zJ5TspPjlWqm9mQ09Rt/wC6&#xA;U/3anr9o9gFXhmKuxV9Lf840/wDOO0uqXFv5084WjR6XCyTaNpky0+ssPiWeVW/3SNiqkfH/AKv2&#xA;lX19irsVdirsVdirsVdirsVdirsVdirsVdirsVdirsVdirsVdirsVdirsVdirsVdirsVdir5G/5y&#xA;h/P/APSMtz5D8q3P+4+ImPXNRibadxs1tGyneNekh/aPw9AeSr5kxVfDDNPKkMKNLNIwSONAWZmJ&#xA;oAoG5JxV9VfkP/zisYpLfzN+YNuCy0lsfLz9j1V7we3URf8ABd1xV9TgAAACgGwA6UxV2KuxV2Ku&#xA;xV2KuxV2KuxV2KuxV2KuxV2KuxV2KuxV2KuxV2KuxV2KuxV2KuxV2KuxV86f85Pfn7/h62m8k+WL&#xA;imvXKcdVvozvaQyL/dIR/u51PX9gf5RHFV8bkkmp64qzD8uvyn87fmBqItdAsWa2Vgt1qU1UtIAe&#xA;7yUNT/krVj4Yq+zfyg/5x48ofl7Gl9Io1fzKVHqapOg4xHuLaM19P/W+0fGm2KvVsVdirsVdirsV&#xA;dirsVdirsVdirsVdirsVdirsVdirsVdirsVdirsVdirsVdirsVdirsVeLf8AOQv5/WXkHTZND0WV&#xA;Z/ON5H+7UUZbKNxtNKDUcyP7tD/rHanJV8X6J5d82+ctbe30myudY1a5cyzGNTIxZzVpJXPwqCTu&#xA;zkDFX01+V/8AzhxZ2xi1L8wLkXcoo66JaOREDsaTzijP4FY6D/KOKvpXS9J0zSbCHT9LtIrKxt14&#xA;wW1uixxoPAKoAxVFYq7FXYq7FXYq7FXYq7FXYq7FXYq7FXYq7FXYq7FXYq7FXYq7FXYq7FXYq7FX&#xA;Yq7FXYq8l/O/83dR8txp5V8mWsmrefdTjrb2ttEbg2sJ2M8iLX4v5FIp+023VV5P+X//ADiHrus3&#xA;f6e/MvUZInumM8+mwSCW7kd6km4uDzVSTuQvInxU4q+m/K/lDyx5V01dN8vabBptmtKxwLQuR+1I&#xA;5q8jf5TEnFU3xV2KuxV2KuxV2KuxV2KuxV2KuxV2KuxV2KuxV2KuxV2KuxV2KuxV2KuxV2Kvjr/o&#xA;dzzr/wBS9pv/AAc//NWKt/8AQ7nnT/qXtN/4Of8A5qxV3/Q7nnT/AKl7Tf8Ag5/+asVd/wBDuedP&#xA;+pe03/g5/wDmrFXf9DuedP8AqXtN/wCDn/5qxVb/ANDsecfU9T/DmmeoRxL8p60BrSvLpiq7/odz&#xA;zp/1L2m/8HP/AM1Yq7/odzzp/wBS9pv/AAc//NWKvcfyB/Oib8ztD1Ce9sUsdU0qVI7pICxhdJgz&#xA;RunOrD7DAgk9PfFXqeKuxV2KuxV2KuxV2KuxV2KuxV2KuxV2KuxV2KuxV2KuxV2KuxV2KuxV2KsV&#xA;/wCVT/lZ/wBSbof/AHDbP/qnirv+VT/lZ/1Juh/9w2z/AOqeKu/5VP8AlZ/1Juh/9w2z/wCqeKu/&#xA;5VP+Vn/Um6H/ANw2z/6p4q7/AJVP+Vn/AFJuh/8AcNs/+qeKu/5VP+Vn/Um6H/3DbP8A6p4q7/lU&#xA;/wCVn/Um6H/3DbP/AKp4q8s/5yZ/LXyRpv5P6tqmi+XtK0u8sprST6zaWVvBMUe5SEqrxorCvq77&#xA;4qxr/nBv/eDzh/xlsP8AiM+KvqLFXYq7FXYq7FXYq7FXYq7FXYq7FXYq7FXYq7FXYq7FXYq7FXYq&#xA;7FXYq7FXYq7FXYq7FXYq7FXYq8c/5y1uJovyV1JI24pPdWcco/mUTq9P+CQHFWAf84N/7wecP+Mt&#xA;h/xGfFX1FirsVdirsVdirsVdirsVdirsVdirsVdirsVdirsVdirsVdirsVdirsVdirsVdirsVdir&#xA;sVdirsVeMf8AOXP/AJJi8/5jLT/k5irBP+cG/wDeDzh/xlsP+Iz4q+osVdirsVdirsVdirsVdirs&#xA;VdirsVWTzwW8LTTyLDCgq8kjBVUeJJ2GKpK3n7yKsohbzHpaytusZvbcMfo517Yqm1lfWN9AtxZX&#xA;EV1bt9maF1kQ/JlJGKq+KuxV2KuxV2KuxV2KuxVjl7+Y/wCX9lex2F15k02K+llW3jtDdwmYyu3F&#xA;V9MMXHxGm4xVkeKuxV2KuxV2KuxV2KvGP+cuQT+TF7QdLy0J/wCRmKsC/wCcH5I49M85SSMEjSSx&#xA;Z3Y0AAS4JJJ6AYq9T84/85LflH5Xd4JdW/S14ho1rpSi6I2r/e8kg9qepXFXjnmD/nN7VXbj5e8s&#xA;wQKK/vdQmeYnw/dwiHj/AMGcVYZc/wDOYH5xTSl45dPtlLcvSitQVA/l/eNI1Ppr74qm+if85p/m&#xA;Jauq6tpem6nCGqxRZbaUjuA4eRB7fu8Ve3eQP+cp/wAsvNTRWl9O3l7VJKKLfUCBAzE9EuR+78Pt&#xA;8D4DFXsKOrqHQhkYAqwNQQehBxVvFXYq7FWIeffza8heRbYyeYdUjhuaVi06L97dybVHGFfiAP8A&#xA;M1F98VfMnn//AJzJ826mZLXydZpodmdhezhbi8YbjYGsMda9OLH/ACsVee2Xkn88/wAzp0vjZ6rr&#xA;STE+nf30jJbUHXhLcMkVB4KflirI4/8AnEL85HQM1vYxk9Ua7Wo+fEMPxxVI9T/J/wDPX8v5RqcW&#xA;m6hZ+l8f6Q0mUyhQO7NaszIP9YDFWUeRf+cvPzG0F0tvMSReY7BSFYzAQXagdeMyDix/4yIx9xir&#xA;6Z/Lr8+vy48+cINMv/qerPt+ib7jDcE7f3e5SX/YMT7DFXomKuxV2KuxV5r+av5+eR/y7je3u5f0&#xA;lr3GsWjWrAyCvQzPusK/PfwU4q+SfOP5z/m5+aWpjSLd5xbXLEW/l/SUkCsOtHCVkmpSp5mg60GK&#xA;so8l/wDOHn5j6o1vda7cW/l61LKzxs/r3gXrVY4v3Yan80gIPbFX2xirsVdirsVdirsVdiry/wD5&#xA;yZs728/JDzLBZ273MvG1kZIwWYRw3kMsj0HZUQk+2+KviHyr5X/MPzFbzaZ5a0/Ub+yuHRrqG1WU&#xA;2zOlQjTEUi+HkaFztU4q9n8m/wDOF3m+/wCE/mvVINGhO5tLYfW7j5MwKxL8wzYq9u8sf84ufk5o&#xA;Ua+ppLaxcrQm51KVpiaf8VL6cNP9hirPIPIPkWCMRweXNLijGwRLK3UD6AmKpF5m/I38qPMkLJqP&#xA;lqzjlKkLc2cYtJgT0bnB6ZYjtyqMVfP35i/84ZavZrLfeRb/APSUIqw0q9Kx3AHhHOOMUn+yCfM4&#xA;q818ufmj+c35Tah+iHkubOOAgvoWqxu8HGoPwI/FkVvGJlr44q9j0P8A5zf08wIuu+WJUnFBJLY3&#xA;CujGu5WOVUK/LmfniqL1P/nN/wAtxh/0X5YvLkgn0zdTxW9R+yWEYuKe4xV5V5w/5yr/ADZ8zVtN&#xA;Nnj0G2l+ARaYrCdqn/f7l5A2/wDuvjiqn5E/5xn/ADT873C6jqsT6Np9w3qTalqnI3EgNCWSAn1X&#xA;JBqC/FT/ADYq+m/y7/5xr/LPyYqTtZDW9WXc6hqKrLxP/FUNPTj9jQt/lYq9VxV2KuxVgH5gfkX+&#xA;W3nlZJdW0tYNTetNVsqQXPI92ZRxl/56K2Kvl38xP+cTvzC8sSPe+Xa+ZNMQ8kNqpW9j325W9SW+&#xA;cZbxoMVS3yJ/zk1+afkthp1/MdasIDwax1Tm00dNiqTn96tKU4tyA8MVe56D/wA5n/lveQD9Mafq&#xA;GlXP7SqiXUX0SIyOf+RYxVGan/zmN+UtrAzWkepX83ElIordYwW7BmldKDxND9OKvGPzE/5y68+e&#xA;YkksfLcQ8tae/wAJlhf1b1gaf7vIUR/881BH82Kpf+Vv/OMvnvzzPHquuepomhTH1HvbpSbq4BNS&#xA;YoXIb4q/3j0HccumKvsLyD+WXkzyHpv1Hy5YJAWFLi9ej3Mx8ZZSOR6fZFFHYDFWU4q7FXYq7FXY&#xA;q7FXYq7FWn4cG504UPKvSneuKrLX6t9Wi+q8PqvBfQ9Knp+nT4eHHbjTpTFVTFXYq7FXYq7FWMfm&#xA;D/yrn9CN/jv9Hfoqjcf0l6dK0+L0ufxc/wDU+LFXy35s/wChNPr0v1L9LUoa/on1vS5f5P13v8vh&#xA;xVL9D/6E7+tQ/XP8Q+nzHP69/d8aj7f1P95x/wBXfFX0X+Vf/QvnJf8AlX/6I+u/s+nT6/0/5eP9&#xA;JpT6MVeoYq7FXYq7FXYq7FXYq8r/ADl/5UB6Df8AKxv0f9c4/u6V/SVOPw8Pq3+k8enX4elcVfH/&#xA;AJw/5UV9e/51X/EP1f8Ab+tfVOFd/wC7/bp0+1iqE8u/8qa+vp/iH/EH1KvxfUvqfPoevqdq0rTt&#xA;ir6i/JP/AKFe9WD/AAn9W/T9Ph/TFfr/AC5ben9Y/d8un9x2+nFXvuKuxV2Kv//Z</xapGImg:image>
               </rdf:li>
            </rdf:Alt>
         </xap:Thumbnails>
         <xap:CreatorTool>Adobe Illustrator CS3</xap:CreatorTool>
         <xap:ModifyDate>2008-01-04T01:08:26-08:00</xap:ModifyDate>
         <xap:MetadataDate>2008-01-04T01:08:26-08:00</xap:MetadataDate>
      </rdf:Description>
      <rdf:Description rdf:about=""
            xmlns:xapTPg="http://ns.adobe.com/xap/1.0/t/pg/"
            xmlns:stDim="http://ns.adobe.com/xap/1.0/sType/Dimensions#"
            xmlns:xapG="http://ns.adobe.com/xap/1.0/g/">
         <xapTPg:MaxPageSize rdf:parseType="Resource">
            <stDim:w>612.000000</stDim:w>
            <stDim:h>792.000000</stDim:h>
            <stDim:unit>Points</stDim:unit>
         </xapTPg:MaxPageSize>
         <xapTPg:NPages>1</xapTPg:NPages>
         <xapTPg:HasVisibleTransparency>False</xapTPg:HasVisibleTransparency>
         <xapTPg:HasVisibleOverprint>False</xapTPg:HasVisibleOverprint>
         <xapTPg:PlateNames>
            <rdf:Seq>
               <rdf:li>Cyan</rdf:li>
               <rdf:li>Magenta</rdf:li>
               <rdf:li>Yellow</rdf:li>
               <rdf:li>Black</rdf:li>
            </rdf:Seq>
         </xapTPg:PlateNames>
         <xapTPg:SwatchGroups>
            <rdf:Seq>
               <rdf:li rdf:parseType="Resource">
                  <xapG:groupName>Default Swatch Group</xapG:groupName>
                  <xapG:groupType>0</xapG:groupType>
               </rdf:li>
            </rdf:Seq>
         </xapTPg:SwatchGroups>
      </rdf:Description>
      <rdf:Description rdf:about=""
            xmlns:dc="http://purl.org/dc/elements/1.1/">
         <dc:format>image/svg+xml</dc:format>
      </rdf:Description>
      <rdf:Description rdf:about=""
            xmlns:xapMM="http://ns.adobe.com/xap/1.0/mm/">
         <xapMM:InstanceID>uuid:CCABF190A4BADC11828F907C0EB444D3</xapMM:InstanceID>
      </rdf:Description>
   </rdf:RDF>
</x:xmpmeta>
                                                                                                    
                                                                                                    
                                                                                                    
                                                                                                    
                                                                                                    
                                                                                                    
                                                                                                    
                                                                                                    
                                                                                                    
                                                                                                    
                                                                                                    
                                                                                                    
                                                                                                    
                                                                                                    
                                                                                                    
                                                                                                    
                                                                                                    
                                                                                                    
                                                                                                    
                                                                                                    
                           
<?xpacket end="w"?>
	</metadata>
<g id="Layer_1" i:layer="yes" i:dimmedPercent="50" i:rgbTrio="#4F008000FFFF">
	<g>
		<g id="surface0" i:knockout="Off">
			<path fill="none" stroke="#000000" stroke-width="0.1" stroke-miterlimit="10" d="M59.142,32.965
				c1.72,0.841,3.381,1.826,4.797,3.128c19.416,17.56,38.425,35.567,57.822,53.145c6.713,5.907,13.111,12.159,19.504,18.409
				c2.394,2.594,4.984,5.079,6.833,8.113c2.686,4.528,0.524,10.967-4.28,13.054c-6.534,2.359-13.681-0.492-18.172-5.468
				c-11.6-12.925-21.897-26.927-32.192-40.894C83.36,69.101,73.498,55.577,63.991,41.803C62.277,38.919,59.998,36.266,59.142,32.965
				z"/>
			<path d="M59.142,32.965c1.72,0.841,3.381,1.826,4.797,3.128c19.416,17.56,38.425,35.567,57.822,53.145
				c6.713,5.907,13.111,12.159,19.504,18.409c2.394,2.594,4.984,5.079,6.833,8.113c2.686,4.528,0.524,10.967-4.28,13.054
				c-6.534,2.359-13.681-0.492-18.172-5.468c-11.6-12.925-21.897-26.927-32.192-40.894C83.36,69.101,73.498,55.577,63.991,41.803
				C62.277,38.919,59.998,36.266,59.142,32.965z"/>
			<path fill="none" stroke="#000000" stroke-width="0.1" stroke-miterlimit="10" d="M60.49,109.147
				c1.582-4.805,6.226-7.51,10.552-9.509c17.012,5.179,28.705,19.537,39.335,32.935c4.92,6.594,10.626,13.966,9.779,22.701
				c-1.159,4.021-3.664,7.513-6.234,10.759c-12.007,14.147-28.137,23.925-44.338,32.556c-7.064,3.58-13.848,7.751-21.108,10.92
				l-1.534-0.092c4.406-5.701,10.152-10.156,14.86-15.584c11.881-13.666,23.442-27.627,36.237-40.461
				c-5.812-4.42-12.491-7.589-18.064-12.338C73.441,135.59,67.241,129.466,63,122.025C60.772,118.203,59.411,113.541,60.49,109.147z
				"/>
			<path d="M60.49,109.147c1.582-4.805,6.226-7.51,10.552-9.509c17.012,5.179,28.705,19.537,39.335,32.935
				c4.92,6.594,10.626,13.966,9.779,22.701c-1.159,4.021-3.664,7.513-6.234,10.759c-12.007,14.147-28.137,23.925-44.338,32.556
				c-7.064,3.58-13.848,7.751-21.108,10.92l-1.534-0.092c4.406-5.701,10.152-10.156,14.86-15.584
				c11.881-13.666,23.442-27.627,36.237-40.461c-5.812-4.42-12.491-7.589-18.064-12.338C73.441,135.59,67.241,129.466,63,122.025
				C60.772,118.203,59.411,113.541,60.49,109.147z"/>
			<path fill="none" stroke="#000000" stroke-width="0.1" stroke-miterlimit="10" d="M174.628,107.886
				c7.23-0.674,14.871,2.301,19.409,8.052c3.191,3.605,4.602,8.403,5.117,13.103c-0.285,5.451-2.227,10.969-6.111,14.91
				c-5.904,6.514-16.01,8.734-24.137,5.427c-11.119-3.803-17.664-18.003-12.111-28.667C159.869,113.563,167,108.795,174.628,107.886
				z"/>
			<path d="M174.628,107.886c7.23-0.674,14.871,2.301,19.409,8.052c3.191,3.605,4.602,8.403,5.117,13.103
				c-0.285,5.451-2.227,10.969-6.111,14.91c-5.904,6.514-16.01,8.734-24.137,5.427c-11.119-3.803-17.664-18.003-12.111-28.667
				C159.869,113.563,167,108.795,174.628,107.886z"/>
			<path fill="none" stroke="#000000" stroke-width="0.1" stroke-miterlimit="10" d="M0,213.381
				c23.629-0.011,47.259,0.022,70.887-0.023c2.548-0.304,3.966,2.363,3.73,4.582c0.004,12.432,0.021,24.865-0.022,37.297
				c10.892-4.244,22.478-8.757,34.385-7.049c11.721,1.471,20.922,11.193,33.006,10.996c16.658-0.303,29.452-13.854,45.953-14.868
				c10.733-0.931,20.638,4.132,30.005,8.665c8.092,3.923,16.854,8.838,26.174,6.631c13.637-2.347,22.917-15.728,37.115-15.98
				c0.599,1.43,1.713,2.909,1.029,4.543c-0.78,1.168-2.201,1.428-3.442,1.797c-9.62,2.297-16.731,9.871-25.853,13.327
				c-5.959,2.608-12.634,3.511-19.07,2.598c-12.717-2.542-23.252-10.909-35.615-14.442c-8.951-2.779-18.348,0.284-26.46,4.176
				c-9.669,4.67-19.696,10.168-30.785,9.593c-12.916,0.355-22.73-10.222-35.358-11.271c-12.358-0.632-23.273,6.003-34.966,8.753
				c-1.06-1.051-2.481-2.102-2.286-3.789c-0.124-13.175-0.001-26.355-0.047-39.533c-22.793-0.002-45.585,0-68.378,0V213.381z"/>
			<path d="M0,213.381c23.629-0.011,47.259,0.022,70.887-0.023c2.548-0.304,3.966,2.363,3.73,4.582
				c0.004,12.432,0.021,24.865-0.022,37.297c10.892-4.244,22.478-8.757,34.385-7.049c11.721,1.471,20.922,11.193,33.006,10.996
				c16.658-0.303,29.452-13.854,45.953-14.868c10.733-0.931,20.638,4.132,30.005,8.665c8.092,3.923,16.854,8.838,26.174,6.631
				c13.637-2.347,22.917-15.728,37.115-15.98c0.599,1.43,1.713,2.909,1.029,4.543c-0.78,1.168-2.201,1.428-3.442,1.797
				c-9.62,2.297-16.731,9.871-25.853,13.327c-5.959,2.608-12.634,3.511-19.07,2.598c-12.717-2.542-23.252-10.909-35.615-14.442
				c-8.951-2.779-18.348,0.284-26.46,4.176c-9.669,4.67-19.696,10.168-30.785,9.593c-12.916,0.355-22.73-10.222-35.358-11.271
				c-12.358-0.632-23.273,6.003-34.966,8.753c-1.06-1.051-2.481-2.102-2.286-3.789c-0.124-13.175-0.001-26.355-0.047-39.533
				c-22.793-0.002-45.585,0-68.378,0V213.381z"/>
		</g>
	</g>
</g>
</svg>
